<svg xmlns="http://www.w3.org/2000/svg" xmlns:xlink="http://www.w3.org/1999/xlink" width="99" zoomAndPan="magnify" viewBox="0 0 74.25 50.999998" height="68" preserveAspectRatio="xMidYMid meet" version="1.0"><defs><clipPath id="6f6e46d6ed"><path d="M 0 0.253906 L 73.40625 0.253906 L 73.40625 50.628906 L 0 50.628906 Z M 0 0.253906 " clip-rule="nonzero"/></clipPath><clipPath id="3611bfc799"><path d="M 71.832031 33.824219 C 72.710938 31.242188 73.285156 28.304688 73.285156 25.421875 C 73.285156 22.542969 72.792969 19.769531 71.914062 17.214844 C 71.886719 17.160156 71.886719 17.105469 71.859375 17.050781 C 68.347656 7.453125 59.070312 0.382812 47.976562 0.246094 L 0 0.246094 L 0 50.628906 L 47.941406 50.628906 C 59.125 50.492188 68.402344 43.53125 71.832031 33.824219 Z M 71.832031 33.824219 " clip-rule="nonzero"/></clipPath><clipPath id="69a4acf331"><path d="M 25 5.082031 L 27 5.082031 L 27 7 L 25 7 Z M 25 5.082031 " clip-rule="nonzero"/></clipPath><clipPath id="30975c57f3"><path d="M 10.90625 5.488281 L 41.128906 5.488281 L 41.128906 45.804688 L 10.90625 45.804688 Z M 10.90625 5.488281 " clip-rule="nonzero"/></clipPath></defs><g clip-path="url(#6f6e46d6ed)"><g clip-path="url(#3611bfc799)"><path fill="#f47e00" d="M 0 50.628906 L 0 0.246094 L 73.210938 0.246094 L 73.210938 50.628906 Z M 0 50.628906 " fill-opacity="1" fill-rule="nonzero"/></g></g><path fill="#ffffff" d="M 14.089844 20.195312 C 14.089844 26.773438 19.441406 32.125 26.019531 32.125 C 32.597656 32.125 37.949219 26.773438 37.949219 20.195312 C 37.949219 13.617188 32.597656 8.265625 26.019531 8.265625 C 19.441406 8.265625 14.089844 13.617188 14.089844 20.195312 Z M 26.019531 9.855469 C 31.71875 9.855469 36.359375 14.492188 36.359375 20.195312 C 36.359375 25.894531 31.71875 30.535156 26.019531 30.535156 C 20.316406 30.535156 15.679688 25.894531 15.679688 20.195312 C 15.679688 14.492188 20.316406 9.855469 26.019531 9.855469 " fill-opacity="1" fill-rule="nonzero"/><path fill="#ffffff" d="M 18.652344 18.777344 L 21.734375 21.8125 L 21.027344 26.082031 C 20.976562 26.378906 21.101562 26.679688 21.34375 26.855469 C 21.585938 27.035156 21.910156 27.058594 22.179688 26.917969 L 26.019531 24.925781 L 29.859375 26.917969 C 30.125 27.054688 30.449219 27.035156 30.695312 26.855469 C 30.9375 26.679688 31.058594 26.378906 31.011719 26.082031 L 30.300781 21.8125 L 33.382812 18.777344 C 33.597656 18.566406 33.675781 18.25 33.582031 17.964844 C 33.488281 17.675781 33.242188 17.46875 32.945312 17.421875 L 28.664062 16.777344 L 26.730469 12.90625 C 26.597656 12.636719 26.320312 12.46875 26.019531 12.46875 C 25.71875 12.46875 25.441406 12.636719 25.308594 12.90625 L 23.371094 16.777344 L 19.09375 17.421875 C 18.796875 17.46875 18.546875 17.675781 18.457031 17.964844 C 18.363281 18.25 18.4375 18.566406 18.652344 18.777344 Z M 24.015625 18.289062 C 24.273438 18.253906 24.496094 18.089844 24.609375 17.859375 L 26.019531 15.042969 L 27.429688 17.859375 C 27.542969 18.089844 27.765625 18.253906 28.019531 18.289062 L 31.136719 18.757812 L 28.890625 20.96875 C 28.707031 21.152344 28.621094 21.410156 28.664062 21.667969 L 29.179688 24.773438 L 26.386719 23.324219 C 26.269531 23.261719 26.144531 23.234375 26.019531 23.234375 C 25.894531 23.234375 25.765625 23.261719 25.652344 23.324219 L 22.855469 24.773438 L 23.375 21.667969 C 23.414062 21.410156 23.332031 21.152344 23.148438 20.96875 L 20.902344 18.757812 L 24.015625 18.289062 " fill-opacity="1" fill-rule="nonzero"/><g clip-path="url(#69a4acf331)"><path fill="#ffffff" d="M 26.8125 5.878906 C 26.8125 6.316406 26.457031 6.671875 26.019531 6.671875 C 25.578125 6.671875 25.222656 6.316406 25.222656 5.878906 C 25.222656 5.4375 25.578125 5.082031 26.019531 5.082031 C 26.457031 5.082031 26.8125 5.4375 26.8125 5.878906 " fill-opacity="1" fill-rule="nonzero"/></g><g clip-path="url(#30975c57f3)"><path fill="#ffffff" d="M 22.269531 5.550781 C 15.578125 7.257812 10.90625 13.28125 10.90625 20.195312 C 10.90625 24.488281 12.714844 28.535156 15.882812 31.398438 L 11.089844 39.84375 C 10.9375 40.117188 10.957031 40.453125 11.140625 40.703125 C 11.324219 40.957031 11.636719 41.078125 11.945312 41.015625 L 17.386719 39.886719 L 19.296875 45.273438 C 19.402344 45.566406 19.667969 45.773438 19.976562 45.800781 C 20.289062 45.828125 20.585938 45.671875 20.738281 45.402344 L 26.019531 36.117188 L 31.300781 45.402344 C 31.441406 45.652344 31.707031 45.804688 31.988281 45.804688 C 32.011719 45.804688 32.035156 45.800781 32.058594 45.800781 C 32.371094 45.773438 32.636719 45.566406 32.738281 45.273438 L 34.652344 39.886719 L 40.09375 41.015625 C 40.398438 41.078125 40.714844 40.957031 40.898438 40.703125 C 41.082031 40.453125 41.101562 40.117188 40.949219 39.84375 L 36.15625 31.398438 C 39.324219 28.535156 41.128906 24.488281 41.128906 20.195312 C 41.128906 13.28125 36.457031 7.257812 29.765625 5.550781 C 29.339844 5.441406 28.910156 5.699219 28.800781 6.125 C 28.691406 6.550781 28.949219 6.984375 29.375 7.09375 C 35.359375 8.621094 39.539062 14.007812 39.539062 20.195312 C 39.539062 27.722656 33.425781 33.714844 26.019531 33.714844 C 18.605469 33.714844 12.5 27.71875 12.5 20.195312 C 12.5 14.007812 16.679688 8.621094 22.664062 7.09375 C 23.089844 6.984375 23.347656 6.550781 23.238281 6.125 C 23.128906 5.699219 22.695312 5.441406 22.269531 5.550781 Z M 20.214844 43.105469 L 18.652344 38.699219 C 18.519531 38.324219 18.128906 38.105469 17.742188 38.1875 L 13.339844 39.101562 L 17.132812 32.417969 C 19.34375 34.023438 21.960938 35.003906 24.683594 35.246094 Z M 34.296875 38.1875 C 33.90625 38.105469 33.519531 38.324219 33.386719 38.699219 L 31.820312 43.105469 L 27.351562 35.246094 C 30.074219 35.003906 32.691406 34.023438 34.90625 32.417969 L 38.695312 39.101562 L 34.296875 38.1875 " fill-opacity="1" fill-rule="nonzero"/></g></svg>