<svg xmlns="http://www.w3.org/2000/svg" xmlns:xlink="http://www.w3.org/1999/xlink" width="99" zoomAndPan="magnify" viewBox="0 0 74.25 50.999998" height="68" preserveAspectRatio="xMidYMid meet" version="1.0"><defs><clipPath id="a7eb793843"><path d="M 0 0.253906 L 73.277344 0.253906 L 73.277344 50.632812 L 0 50.632812 Z M 0 0.253906 " clip-rule="nonzero"/></clipPath><clipPath id="f4001fc3b8"><path d="M 1.449219 17.054688 C 0.570312 19.636719 -0.0078125 22.574219 -0.0078125 25.457031 C -0.0078125 28.339844 0.488281 31.113281 1.363281 33.667969 C 1.390625 33.722656 1.390625 33.777344 1.417969 33.832031 C 4.933594 43.429688 14.210938 50.496094 25.304688 50.632812 L 73.277344 50.632812 L 73.277344 0.253906 L 25.339844 0.253906 C 14.15625 0.390625 4.878906 7.347656 1.449219 17.054688 Z M 1.449219 17.054688 " clip-rule="nonzero"/></clipPath><clipPath id="e3ac0d3ad7"><path d="M 29.40625 9.703125 L 61.316406 9.703125 L 61.316406 40.429688 L 29.40625 40.429688 Z M 29.40625 9.703125 " clip-rule="nonzero"/></clipPath><clipPath id="8d3ec78e33"><path d="M 29.40625 10.960938 L 61.203125 10.960938 L 61.203125 40.886719 L 29.40625 40.886719 Z M 29.40625 10.960938 " clip-rule="nonzero"/></clipPath></defs><g clip-path="url(#a7eb793843)"><g clip-path="url(#f4001fc3b8)"><path fill="#002f49" d="M 73.277344 0.253906 L 73.277344 50.632812 L 0.0703125 50.632812 L 0.0703125 0.253906 Z M 73.277344 0.253906 " fill-opacity="1" fill-rule="nonzero"/></g></g><g clip-path="url(#e3ac0d3ad7)"><path fill="#ffffff" d="M 52.738281 9.726562 C 56.414062 9.613281 58.574219 9.847656 60.40625 11.589844 C 60.960938 12.121094 61.324219 12.628906 61.5 12.90625 C 59.460938 12.207031 58.367188 12.546875 57.769531 12.90625 C 55.363281 14.355469 56.199219 19.019531 56.011719 30.027344 C 55.898438 36.757812 55.527344 38.332031 54.253906 39.464844 C 53.191406 40.414062 52.1875 40.429688 44.816406 40.339844 C 37.847656 40.265625 34.320312 40.1875 32.304688 38.582031 C 30.746094 37.335938 29.914062 35.769531 29.453125 34.628906 C 31.71875 35.421875 32.933594 35.074219 33.621094 34.628906 C 35.414062 33.464844 35.320312 30.472656 35.15625 20.582031 C 35.070312 15.027344 35.050781 12.226562 36.480469 10.929688 C 37.652344 9.871094 38.796875 10.09375 43.28125 10.054688 C 45.617188 10.035156 47.617188 9.949219 49.355469 9.871094 M 49.355469 9.871094 C 50.617188 9.816406 51.730469 9.757812 52.738281 9.726562 " fill-opacity="1" fill-rule="nonzero"/></g><g clip-path="url(#8d3ec78e33)"><path fill="#002f49" d="M 52.195312 40.070312 C 50.03125 40.050781 47.871094 40.195312 45.710938 40.289062 C 43.59375 40.382812 41.480469 40.546875 39.359375 40.394531 C 37.429688 40.257812 35.496094 39.835938 33.777344 38.929688 C 32.242188 38.117188 31.066406 37.003906 30.304688 35.496094 C 30.859375 35.851562 31.550781 36 32.234375 36.039062 C 33.765625 36.128906 35.335938 35.90625 36.863281 35.832031 C 39.992188 35.675781 43.128906 35.554688 46.265625 35.480469 C 46.359375 35.480469 46.433594 35.441406 46.484375 35.382812 C 47.011719 37.417969 48.554688 39.082031 50.507812 39.847656 C 50.808594 39.96875 50.941406 39.476562 50.640625 39.359375 C 48.78125 38.628906 47.386719 37.140625 46.671875 35.285156 C 46.65625 35.234375 46.609375 35.207031 46.566406 35.214844 C 46.597656 35.03125 46.496094 34.824219 46.257812 34.832031 C 43.378906 34.90625 40.496094 35.03125 37.625 35.222656 C 36.210938 35.316406 34.800781 35.433594 33.386719 35.535156 C 32.199219 35.625 30.964844 35.5625 30.007812 34.835938 C 30.007812 34.835938 30.007812 34.835938 30.007812 34.832031 C 29.96875 34.730469 29.875 34.667969 29.78125 34.640625 C 29.738281 34.597656 29.691406 34.558594 29.648438 34.515625 C 29.566406 34.433594 29.433594 34.539062 29.492188 34.636719 C 29.496094 34.648438 29.503906 34.652344 29.511719 34.667969 C 29.441406 34.710938 29.398438 34.792969 29.410156 34.914062 C 29.597656 36.347656 30.675781 37.582031 31.769531 38.464844 C 32.949219 39.414062 34.320312 40.074219 35.761719 40.503906 C 39.09375 41.484375 42.632812 41.191406 46.039062 40.886719 C 48.101562 40.703125 50.175781 40.554688 52.226562 40.257812 C 52.339844 40.25 52.308594 40.070312 52.195312 40.070312 Z M 51.230469 32.46875 C 51.003906 32.527344 50.765625 32.558594 50.519531 32.558594 C 50.25 32.558594 49.984375 32.519531 49.738281 32.449219 C 49.726562 33.117188 49.59375 33.804688 49.511719 34.453125 C 49.464844 34.855469 49.414062 35.257812 49.355469 35.660156 C 49.496094 35.367188 49.609375 35.011719 49.871094 34.824219 C 50.011719 34.722656 50.1875 34.8125 50.25 34.949219 C 50.476562 35.308594 50.808594 35.609375 51.085938 35.953125 C 51.070312 35.320312 51.113281 34.6875 51.144531 34.0625 C 51.175781 33.558594 51.152344 32.984375 51.230469 32.46875 Z M 51.914062 32.210938 C 52 32.867188 51.8125 33.632812 51.75 34.269531 C 51.671875 35.007812 51.609375 35.757812 51.421875 36.480469 C 51.433594 36.503906 51.441406 36.53125 51.453125 36.554688 C 51.539062 36.800781 51.21875 37.039062 51.003906 36.894531 C 50.695312 36.679688 50.476562 36.304688 50.292969 35.976562 C 50.210938 35.832031 50.117188 35.675781 50.046875 35.511719 C 50.023438 35.546875 50 35.578125 49.964844 35.625 C 49.871094 35.761719 49.789062 35.914062 49.695312 36.050781 C 49.539062 36.296875 49.382812 36.519531 49.15625 36.695312 C 49.046875 36.941406 48.613281 36.871094 48.636719 36.582031 C 48.699219 35.84375 48.851562 35.113281 48.964844 34.382812 C 49.078125 33.695312 49.128906 32.972656 49.3125 32.300781 C 48.277344 31.839844 47.554688 30.800781 47.554688 29.59375 C 47.554688 27.953125 48.882812 26.625 50.519531 26.625 C 52.15625 26.625 53.484375 27.953125 53.484375 29.59375 C 53.492188 30.726562 52.851562 31.714844 51.914062 32.210938 Z M 40.867188 31.863281 C 40.265625 31.816406 39.652344 31.78125 39.042969 31.777344 C 38.507812 31.769531 37.882812 31.65625 37.398438 31.910156 C 37.230469 31.996094 37.214844 32.292969 37.398438 32.382812 C 37.871094 32.601562 38.417969 32.496094 38.9375 32.496094 C 39.546875 32.496094 40.152344 32.507812 40.761719 32.519531 C 41.976562 32.558594 43.1875 32.640625 44.394531 32.675781 C 44.550781 32.683594 44.582031 32.4375 44.433594 32.398438 C 43.265625 32.117188 42.070312 31.964844 40.867188 31.863281 Z M 44.890625 27.710938 C 43.574219 27.644531 42.265625 27.613281 40.949219 27.582031 C 40.328125 27.570312 39.710938 27.550781 39.085938 27.53125 C 38.457031 27.515625 37.765625 27.394531 37.152344 27.53125 C 36.871094 27.597656 36.902344 28 37.152344 28.074219 C 37.71875 28.246094 38.394531 28.175781 38.980469 28.1875 C 39.632812 28.199219 40.296875 28.199219 40.949219 28.195312 C 42.265625 28.175781 43.582031 28.105469 44.890625 27.960938 C 45.050781 27.949219 45.054688 27.714844 44.890625 27.710938 Z M 52.800781 24.285156 C 50.273438 24 47.761719 23.9375 45.230469 23.832031 C 42.71875 23.722656 40.167969 23.636719 37.664062 23.78125 C 37.160156 23.8125 37.152344 24.546875 37.664062 24.5625 C 40.183594 24.644531 42.71875 24.546875 45.230469 24.511719 C 47.757812 24.472656 50.273438 24.542969 52.800781 24.460938 C 52.917969 24.460938 52.914062 24.296875 52.800781 24.285156 Z M 41.316406 19.140625 C 40.660156 19.140625 40.007812 19.140625 39.351562 19.144531 C 38.722656 19.152344 38.179688 19.128906 37.613281 19.390625 C 37.429688 19.472656 37.511719 19.71875 37.664062 19.777344 C 38.21875 19.996094 38.765625 19.933594 39.351562 19.925781 C 40.007812 19.914062 40.660156 19.910156 41.316406 19.910156 C 42.585938 19.910156 43.859375 19.933594 45.132812 19.976562 C 47.667969 20.058594 50.199219 20.210938 52.738281 20.273438 C 52.882812 20.28125 52.917969 20.039062 52.773438 20.015625 C 50.25 19.542969 47.695312 19.328125 45.132812 19.222656 C 43.859375 19.171875 42.585938 19.144531 41.316406 19.140625 Z M 37.292969 15.488281 C 38.539062 15.644531 39.878906 15.5 41.132812 15.496094 C 42.410156 15.488281 43.695312 15.480469 44.972656 15.476562 C 46.214844 15.46875 47.460938 15.445312 48.699219 15.4375 C 49.992188 15.433594 51.320312 15.375 52.609375 15.46875 C 52.757812 15.480469 52.789062 15.238281 52.644531 15.21875 C 51.394531 15.042969 50.179688 14.890625 48.914062 14.847656 C 47.597656 14.800781 46.285156 14.765625 44.96875 14.757812 C 43.683594 14.746094 42.40625 14.75 41.125 14.75 C 39.835938 14.757812 38.46875 14.644531 37.191406 14.820312 C 36.78125 14.871094 36.945312 15.445312 37.292969 15.488281 Z M 60.769531 12.988281 C 60.34375 12.71875 60.085938 12.347656 59.726562 12.007812 C 59.226562 11.535156 58.554688 11.546875 57.996094 11.914062 C 56.988281 12.566406 56.664062 14.136719 56.503906 15.238281 C 56.15625 17.589844 56.546875 20.003906 56.691406 22.359375 C 56.835938 24.820312 56.855469 27.289062 56.734375 29.75 C 56.621094 32.074219 56.472656 34.476562 55.984375 36.757812 C 55.632812 38.425781 54.542969 40.296875 52.585938 40.082031 C 52.472656 40.070312 52.464844 39.90625 52.585938 39.90625 C 53.984375 39.886719 54.953125 38.664062 55.332031 37.429688 C 55.726562 36.140625 55.789062 34.722656 55.910156 33.382812 C 56.128906 30.859375 56.226562 28.3125 56.179688 25.78125 C 56.136719 23.296875 55.847656 20.828125 55.707031 18.347656 C 55.59375 16.3125 55.640625 13.726562 56.957031 12.039062 C 57.492188 11.351562 58.285156 10.867188 59.179688 11 C 60.128906 11.136719 60.46875 11.976562 61.09375 12.574219 C 61.300781 12.789062 61.015625 13.144531 60.769531 12.988281 " fill-opacity="1" fill-rule="nonzero"/></g><path fill="#ffffff" d="M 51.730469 29.9375 C 51.636719 30.019531 51.621094 30.160156 51.628906 30.277344 C 51.636719 30.390625 51.628906 30.5 51.640625 30.613281 C 51.660156 30.808594 51.804688 30.964844 52.011719 30.933594 C 52.226562 30.902344 52.316406 30.71875 52.285156 30.523438 C 52.257812 30.378906 52.207031 30.207031 52.132812 30.082031 C 52.058594 29.933594 51.878906 29.8125 51.730469 29.9375 Z M 49.984375 28.011719 C 49.890625 27.988281 49.871094 27.847656 49.960938 27.804688 C 50.765625 27.382812 51.667969 27.941406 51.957031 28.734375 C 52 28.847656 51.949219 29 51.867188 29.082031 C 51.75 29.195312 51.585938 29.226562 51.441406 29.136719 C 51.277344 29.042969 51.230469 28.824219 51.132812 28.679688 C 50.867188 28.296875 50.414062 28.117188 49.984375 28.011719 " fill-opacity="1" fill-rule="nonzero"/></svg>