<svg xmlns="http://www.w3.org/2000/svg" xmlns:xlink="http://www.w3.org/1999/xlink" width="99" zoomAndPan="magnify" viewBox="0 0 74.25 50.999998" height="68" preserveAspectRatio="xMidYMid meet" version="1.0"><defs><clipPath id="9cbadc8132"><path d="M 0 0.253906 L 73.40625 0.253906 L 73.40625 50.628906 L 0 50.628906 Z M 0 0.253906 " clip-rule="nonzero"/></clipPath><clipPath id="82a5a5e1aa"><path d="M 71.832031 33.824219 C 72.710938 31.242188 73.285156 28.304688 73.285156 25.421875 C 73.285156 22.542969 72.792969 19.769531 71.914062 17.214844 C 71.886719 17.160156 71.886719 17.105469 71.859375 17.050781 C 68.347656 7.453125 59.070312 0.382812 47.976562 0.246094 L 0 0.246094 L 0 50.628906 L 47.941406 50.628906 C 59.125 50.492188 68.402344 43.53125 71.832031 33.824219 Z M 71.832031 33.824219 " clip-rule="nonzero"/></clipPath><clipPath id="5c77b357b7"><path d="M 16.921875 4.679688 L 47.363281 4.679688 L 47.363281 46.257812 L 16.921875 46.257812 Z M 16.921875 4.679688 " clip-rule="nonzero"/></clipPath></defs><g clip-path="url(#9cbadc8132)"><g clip-path="url(#82a5a5e1aa)"><path fill="#f47e00" d="M 0 50.628906 L 0 0.246094 L 73.210938 0.246094 L 73.210938 50.628906 Z M 0 50.628906 " fill-opacity="1" fill-rule="nonzero"/></g></g><g clip-path="url(#5c77b357b7)"><path fill="#ffffff" d="M 31.066406 11.855469 L 27.257812 10.269531 L 26.742188 11.507812 L 30.777344 13.191406 C 30.347656 15.355469 30.054688 17.71875 29.882812 20.019531 L 27 18.164062 L 27 21.410156 L 16.925781 21.410156 L 16.925781 22.753906 L 28.34375 22.753906 L 28.34375 20.625 L 35.832031 25.4375 L 28.34375 30.253906 L 28.34375 28.125 L 16.925781 28.125 L 16.925781 29.46875 L 27 29.46875 L 27 32.714844 L 29.882812 30.859375 C 30.054688 33.15625 30.347656 35.523438 30.777344 37.6875 L 26.742188 39.371094 L 27.257812 40.609375 L 31.066406 39.023438 C 32.039062 43.144531 33.558594 46.257812 35.730469 46.257812 L 38.417969 46.257812 C 39.445312 46.257812 40.351562 45.515625 41.125 44.242188 L 42.445312 44.242188 C 45.894531 44.242188 47.148438 32.996094 47.148438 25.4375 C 47.148438 17.878906 45.894531 6.636719 42.445312 6.636719 L 41.125 6.636719 C 40.351562 5.363281 39.445312 4.621094 38.417969 4.621094 L 35.730469 4.621094 C 33.558594 4.621094 32.039062 7.734375 31.066406 11.855469 Z M 35.730469 5.964844 C 35.847656 5.964844 35.972656 5.992188 36.09375 6.042969 C 35.058594 7.425781 34.179688 9.816406 33.535156 12.882812 L 32.335938 12.382812 C 33.289062 8.296875 34.605469 5.964844 35.730469 5.964844 Z M 32.054688 13.722656 L 33.277344 14.230469 C 32.882812 16.457031 32.609375 18.980469 32.472656 21.683594 L 31.175781 20.847656 C 31.347656 18.152344 31.65625 15.757812 32.054688 13.722656 Z M 33.78125 22.523438 C 33.890625 19.710938 34.152344 17.070312 34.542969 14.757812 L 37.488281 15.984375 L 38.003906 14.746094 L 34.792969 13.40625 C 35.375 10.496094 36.164062 8.234375 37.074219 6.96875 C 38.746094 9.375 40.433594 15.972656 40.433594 25.4375 C 40.433594 34.90625 38.746094 41.503906 37.074219 43.90625 C 36.164062 42.644531 35.375 40.382812 34.792969 37.46875 L 38.003906 36.132812 L 37.488281 34.890625 L 34.542969 36.121094 C 34.15625 33.808594 33.890625 31.167969 33.78125 28.355469 L 38.316406 25.4375 Z M 31.175781 30.03125 L 32.472656 29.195312 C 32.609375 31.898438 32.882812 34.421875 33.277344 36.648438 L 32.054688 37.15625 C 31.65625 35.121094 31.347656 32.726562 31.175781 30.03125 Z M 32.335938 38.492188 L 33.535156 37.992188 C 34.179688 41.0625 35.058594 43.449219 36.09375 44.832031 C 35.972656 44.886719 35.847656 44.914062 35.730469 44.914062 C 34.605469 44.914062 33.289062 42.582031 32.335938 38.492188 Z M 42.445312 42.898438 L 41.820312 42.898438 C 42.164062 42.113281 42.476562 41.207031 42.753906 40.214844 L 44.082031 40.214844 C 43.507812 41.988281 42.902344 42.898438 42.445312 42.898438 Z M 44.410156 28.125 L 45.757812 28.125 C 45.726562 29.0625 45.683594 29.960938 45.625 30.8125 L 44.261719 30.8125 C 44.328125 29.925781 44.378906 29.027344 44.410156 28.125 Z M 45.519531 32.15625 C 45.433594 33.109375 45.335938 34.011719 45.222656 34.839844 L 43.835938 34.839844 C 43.957031 33.96875 44.0625 33.070312 44.148438 32.15625 Z M 45.019531 36.183594 C 44.847656 37.195312 44.660156 38.085938 44.460938 38.871094 L 43.097656 38.871094 C 43.296875 38.023438 43.472656 37.121094 43.628906 36.183594 Z M 45.789062 26.78125 L 44.449219 26.78125 C 44.457031 26.335938 44.460938 25.886719 44.460938 25.4375 C 44.460938 24.992188 44.457031 24.542969 44.449219 24.097656 L 45.789062 24.097656 C 45.796875 24.539062 45.804688 24.976562 45.804688 25.4375 C 45.804688 25.902344 45.796875 26.339844 45.789062 26.78125 Z M 43.097656 12.007812 L 44.460938 12.007812 C 44.660156 12.792969 44.847656 13.683594 45.019531 14.695312 L 43.628906 14.695312 C 43.472656 13.757812 43.296875 12.855469 43.097656 12.007812 Z M 45.222656 16.035156 C 45.335938 16.867188 45.433594 17.769531 45.519531 18.722656 L 44.148438 18.722656 C 44.0625 17.808594 43.957031 16.910156 43.835938 16.035156 Z M 45.625 20.066406 C 45.683594 20.917969 45.726562 21.8125 45.757812 22.753906 L 44.410156 22.753906 C 44.378906 21.851562 44.328125 20.953125 44.261719 20.066406 Z M 42.445312 7.976562 C 42.902344 7.976562 43.507812 8.890625 44.082031 10.664062 L 42.753906 10.664062 C 42.476562 9.671875 42.164062 8.765625 41.820312 7.976562 Z M 43.117188 25.4375 C 43.117188 37.503906 40.378906 44.914062 38.417969 44.914062 L 37.980469 44.914062 C 40.460938 41.730469 41.773438 33.390625 41.773438 25.4375 C 41.773438 17.488281 40.460938 9.144531 37.980469 5.964844 L 38.417969 5.964844 C 40.378906 5.964844 43.117188 13.371094 43.117188 25.4375 Z M 43.117188 25.4375 " fill-opacity="1" fill-rule="nonzero"/></g><path fill="#ffffff" d="M 24.574219 41.730469 L 24.054688 40.488281 L 25.398438 39.929688 L 25.917969 41.167969 Z M 24.574219 41.730469 " fill-opacity="1" fill-rule="nonzero"/><path fill="#ffffff" d="M 21.886719 42.847656 L 21.371094 41.609375 L 22.714844 41.046875 L 23.230469 42.289062 Z M 21.886719 42.847656 " fill-opacity="1" fill-rule="nonzero"/><path fill="#ffffff" d="M 25.398438 10.949219 L 24.054688 10.390625 L 24.574219 9.148438 L 25.914062 9.710938 Z M 25.398438 10.949219 " fill-opacity="1" fill-rule="nonzero"/><path fill="#ffffff" d="M 22.710938 9.828125 L 21.367188 9.269531 L 21.886719 8.03125 L 23.230469 8.589844 Z M 22.710938 9.828125 " fill-opacity="1" fill-rule="nonzero"/><path fill="#ffffff" d="M 20.609375 37.511719 L 20.300781 36.203125 L 28.859375 34.183594 L 29.167969 35.492188 Z M 20.609375 37.511719 " fill-opacity="1" fill-rule="nonzero"/><path fill="#ffffff" d="M 17.753906 38.179688 L 17.445312 36.875 L 18.789062 36.558594 L 19.097656 37.867188 Z M 17.753906 38.179688 " fill-opacity="1" fill-rule="nonzero"/><path fill="#ffffff" d="M 28.863281 16.691406 L 20.300781 14.675781 L 20.609375 13.367188 L 29.171875 15.382812 Z M 28.863281 16.691406 " fill-opacity="1" fill-rule="nonzero"/><path fill="#ffffff" d="M 18.789062 14.320312 L 17.445312 14.003906 L 17.753906 12.695312 L 19.097656 13.011719 Z M 18.789062 14.320312 " fill-opacity="1" fill-rule="nonzero"/></svg>