<svg xmlns="http://www.w3.org/2000/svg" xmlns:xlink="http://www.w3.org/1999/xlink" width="99" zoomAndPan="magnify" viewBox="0 0 74.25 50.999998" height="68" preserveAspectRatio="xMidYMid meet" version="1.0"><defs><clipPath id="c41cfbb30f"><path d="M 0 0.253906 L 73.40625 0.253906 L 73.40625 50.628906 L 0 50.628906 Z M 0 0.253906 " clip-rule="nonzero"/></clipPath><clipPath id="0a702f643a"><path d="M 71.832031 33.824219 C 72.710938 31.242188 73.285156 28.304688 73.285156 25.421875 C 73.285156 22.542969 72.792969 19.769531 71.914062 17.214844 C 71.886719 17.160156 71.886719 17.105469 71.859375 17.050781 C 68.347656 7.453125 59.070312 0.382812 47.976562 0.246094 L 0 0.246094 L 0 50.628906 L 47.941406 50.628906 C 59.125 50.492188 68.402344 43.53125 71.832031 33.824219 Z M 71.832031 33.824219 " clip-rule="nonzero"/></clipPath><clipPath id="0cdb329ab5"><path d="M 5.109375 4.285156 L 45.808594 4.285156 L 45.808594 45.125 L 5.109375 45.125 Z M 5.109375 4.285156 " clip-rule="nonzero"/></clipPath></defs><g clip-path="url(#c41cfbb30f)"><g clip-path="url(#0a702f643a)"><path fill="#f47e00" d="M 0 50.628906 L 0 0.246094 L 73.210938 0.246094 L 73.210938 50.628906 Z M 0 50.628906 " fill-opacity="1" fill-rule="nonzero"/></g></g><g clip-path="url(#0cdb329ab5)"><path fill="#ffffff" d="M 11.476562 33.03125 L 13.605469 33.03125 L 8.886719 30.308594 C 8.730469 30.21875 8.617188 30.070312 8.570312 29.894531 C 8.523438 29.722656 8.546875 29.535156 8.636719 29.382812 L 13.394531 21.140625 L 18.152344 12.902344 L 22.90625 4.664062 C 23 4.507812 23.148438 4.394531 23.320312 4.347656 C 23.496094 4.300781 23.679688 4.324219 23.835938 4.414062 L 33.253906 9.851562 C 33.578125 10.039062 33.6875 10.457031 33.5 10.78125 L 28.742188 19.019531 L 27.335938 21.457031 L 29.605469 20.148438 L 37.84375 15.390625 C 38.171875 15.203125 38.585938 15.316406 38.773438 15.640625 L 44.210938 25.054688 C 44.300781 25.210938 44.324219 25.398438 44.277344 25.570312 C 44.230469 25.746094 44.117188 25.894531 43.960938 25.984375 L 35.722656 30.738281 L 31.75 33.03125 L 45.167969 33.03125 C 45.542969 33.03125 45.847656 33.339844 45.847656 33.714844 L 45.847656 44.585938 C 45.847656 44.960938 45.542969 45.261719 45.167969 45.261719 L 11.476562 45.261719 C 8.035156 45.261719 5.074219 42.539062 5.074219 39.292969 C 5.074219 39.28125 5.074219 39.273438 5.074219 39.261719 C 5.074219 39.253906 5.074219 39.242188 5.074219 39.234375 C 5.074219 39.226562 5.074219 39.214844 5.074219 39.207031 C 5.074219 39.195312 5.074219 39.183594 5.074219 39.175781 C 5.125 35.894531 8.09375 33.03125 11.476562 33.03125 Z M 36.332031 43.902344 L 44.488281 43.902344 L 44.488281 34.390625 L 36.332031 34.390625 Z M 10.15625 29.472656 L 13.277344 31.273438 L 12.878906 30.589844 C 12.691406 30.265625 12.804688 29.847656 13.128906 29.660156 L 19.960938 25.71875 L 14.230469 22.410156 Z M 14.910156 21.230469 L 15.785156 21.738281 L 21.328125 24.933594 L 21.382812 24.890625 C 21.382812 24.890625 21.382812 24.875 21.382812 24.875 C 21.382812 24.875 21.367188 24.875 21.367188 24.875 L 24.984375 22.804688 L 27.226562 18.921875 L 23.109375 16.546875 L 18.988281 14.167969 Z M 27.90625 17.75 L 31.984375 10.6875 L 23.746094 5.933594 L 19.667969 12.992188 L 23.789062 15.371094 Z M 42.691406 25.144531 L 37.9375 16.90625 L 30.875 20.984375 L 33.253906 25.101562 L 35.632812 29.222656 Z M 26.820312 43.902344 L 34.972656 43.902344 L 34.972656 34.390625 L 26.820312 34.390625 Z M 26.707031 32.789062 C 26.75 32.867188 26.777344 33.03125 26.789062 33.03125 L 29.5625 33.03125 C 29.589844 33.03125 29.695312 32.648438 29.882812 32.539062 L 34.453125 29.902344 L 32.074219 25.78125 L 29.699219 21.664062 L 25.820312 23.902344 L 22.636719 25.742188 Z M 17.304688 43.902344 L 25.460938 43.902344 L 25.460938 34.390625 L 17.304688 34.390625 Z M 25.277344 33.03125 L 21.457031 26.417969 L 14.394531 30.496094 L 15.71875 32.789062 C 15.765625 32.863281 15.789062 33.03125 15.800781 33.03125 Z M 11.476562 43.902344 L 15.945312 43.902344 L 15.945312 34.390625 L 11.476562 34.390625 C 8.800781 34.390625 6.449219 36.648438 6.433594 39.230469 C 6.449219 41.765625 8.753906 43.902344 11.476562 43.902344 Z M 11.476562 43.902344 " fill-opacity="1" fill-rule="nonzero"/></g><path fill="#ffffff" d="M 11.117188 36.46875 C 12.605469 36.46875 13.816406 37.679688 13.816406 39.167969 C 13.816406 40.65625 12.605469 41.867188 11.117188 41.867188 C 9.625 41.867188 8.414062 40.65625 8.414062 39.167969 C 8.414062 37.679688 9.625 36.46875 11.117188 36.46875 Z M 11.117188 40.507812 C 11.855469 40.507812 12.457031 39.90625 12.457031 39.167969 C 12.457031 38.425781 11.855469 37.824219 11.117188 37.824219 C 10.375 37.824219 9.773438 38.429688 9.773438 39.167969 C 9.773438 39.90625 10.375 40.507812 11.117188 40.507812 Z M 11.117188 40.507812 " fill-opacity="1" fill-rule="nonzero"/></svg>