<svg xmlns="http://www.w3.org/2000/svg" xmlns:xlink="http://www.w3.org/1999/xlink" width="99" zoomAndPan="magnify" viewBox="0 0 74.25 50.999998" height="68" preserveAspectRatio="xMidYMid meet" version="1.0"><defs><clipPath id="d373e844f0"><path d="M 0 0.253906 L 73.277344 0.253906 L 73.277344 50.632812 L 0 50.632812 Z M 0 0.253906 " clip-rule="nonzero"/></clipPath><clipPath id="372d482d04"><path d="M 1.449219 17.054688 C 0.570312 19.636719 -0.0078125 22.574219 -0.0078125 25.457031 C -0.0078125 28.339844 0.488281 31.113281 1.363281 33.667969 C 1.390625 33.722656 1.390625 33.777344 1.417969 33.832031 C 4.933594 43.429688 14.210938 50.496094 25.304688 50.632812 L 73.277344 50.632812 L 73.277344 0.253906 L 25.339844 0.253906 C 14.15625 0.390625 4.878906 7.347656 1.449219 17.054688 Z M 1.449219 17.054688 " clip-rule="nonzero"/></clipPath><clipPath id="1d36d61ae6"><path d="M 28.589844 0.347656 L 49.953125 0.347656 L 49.953125 50.097656 L 28.589844 50.097656 Z M 28.589844 0.347656 " clip-rule="nonzero"/></clipPath></defs><g clip-path="url(#d373e844f0)"><g clip-path="url(#372d482d04)"><path fill="#002f49" d="M 73.277344 0.253906 L 73.277344 50.632812 L 0.0703125 50.632812 L 0.0703125 0.253906 Z M 73.277344 0.253906 " fill-opacity="1" fill-rule="nonzero"/></g></g><g clip-path="url(#1d36d61ae6)"><path fill="#ffffff" d="M 46.390625 10.9375 L 46.390625 28.738281 L 41.050781 28.738281 L 41.050781 21.613281 C 41.050781 20.632812 40.253906 19.835938 39.269531 19.835938 C 38.285156 19.835938 37.488281 20.632812 37.488281 21.613281 L 37.488281 28.738281 L 32.152344 28.738281 L 32.152344 10.9375 Z M 46.390625 7.375 C 48.355469 7.375 49.949219 8.972656 49.949219 10.9375 L 49.949219 28.738281 C 49.949219 30.703125 48.355469 32.296875 46.390625 32.296875 L 46.390625 48.316406 C 46.390625 49.300781 45.59375 50.097656 44.609375 50.097656 C 43.625 50.097656 42.828125 49.300781 42.828125 48.316406 L 42.828125 32.296875 L 35.710938 32.296875 L 35.710938 48.316406 C 35.710938 49.300781 34.914062 50.097656 33.929688 50.097656 C 32.949219 50.097656 32.152344 49.300781 32.152344 48.316406 L 32.152344 32.296875 C 30.183594 32.296875 28.589844 30.703125 28.589844 28.738281 L 28.589844 10.9375 C 28.589844 8.972656 30.183594 7.375 32.152344 7.375 L 32.152344 2.035156 C 32.152344 1.050781 32.949219 0.253906 33.929688 0.253906 C 34.914062 0.253906 35.710938 1.050781 35.710938 2.035156 L 35.710938 7.375 L 42.828125 7.375 L 42.828125 2.035156 C 42.828125 1.050781 43.625 0.253906 44.609375 0.253906 C 45.59375 0.253906 46.390625 1.050781 46.390625 2.035156 L 46.390625 7.375 " fill-opacity="1" fill-rule="nonzero"/></g><path fill="#ffffff" d="M 41.050781 44.753906 C 41.050781 43.773438 40.253906 42.976562 39.269531 42.976562 C 38.285156 42.976562 37.488281 43.773438 37.488281 44.753906 C 37.488281 45.738281 38.285156 46.535156 39.269531 46.535156 C 40.253906 46.535156 41.050781 45.738281 41.050781 44.753906 " fill-opacity="1" fill-rule="nonzero"/><path fill="#ffffff" d="M 39.269531 35.855469 C 40.253906 35.855469 41.050781 36.652344 41.050781 37.636719 C 41.050781 38.617188 40.253906 39.414062 39.269531 39.414062 C 38.285156 39.414062 37.488281 38.617188 37.488281 37.636719 C 37.488281 36.652344 38.285156 35.855469 39.269531 35.855469 " fill-opacity="1" fill-rule="nonzero"/></svg>